<?xml version="1.0" encoding="UTF-8"?>
<svg xmlns="http://www.w3.org/2000/svg" xmlns:xlink="http://www.w3.org/1999/xlink" width="800pt" height="404pt" viewBox="0 0 800 404" version="1.1">
<g id="surface1">
<path style=" stroke:none;fill-rule:evenodd;fill:rgb(89.0625%,0%,10.984802%);fill-opacity:1;" d="M 0.0703125 0.71875 L 799.671875 0.71875 L 799.671875 403.015625 L 0.0703125 403.015625 L 0.0703125 0.71875 "/>
<path style=" stroke:none;fill-rule:evenodd;fill:rgb(96.09375%,76.951599%,0%);fill-opacity:1;" d="M 233.414063 98.652344 C 242.535156 98.652344 249.929688 106.046875 249.929688 115.167969 C 249.929688 124.289063 242.535156 131.683594 233.414063 131.683594 C 224.292969 131.683594 216.898438 124.289063 216.898438 115.167969 C 216.898438 106.046875 224.292969 98.652344 233.414063 98.652344 "/>
<path style=" stroke:none;fill-rule:evenodd;fill:rgb(98.826599%,98.826599%,98.826599%);fill-opacity:1;" d="M 188.589844 260.066406 L 148.828125 260.066406 C 145.046875 256.90625 145.230469 254.914063 145.296875 249.132813 L 145.308594 164.386719 C 146.792969 152.609375 158.761719 145.429688 164.839844 144.316406 L 301.789063 144.335938 C 312.320313 146.203125 317.230469 153.023438 320.152344 163.507813 L 320.152344 251.734375 C 319.707031 255.085938 320.992188 258.726563 317.210938 259.921875 L 277.371094 260.078125 C 286.371094 251.652344 287.636719 242.28125 285.4375 226.101563 L 180.613281 226.0625 C 179.609375 245.878906 179.828125 253.460938 188.589844 260.066406 "/>
<path style=" stroke:none;fill-rule:evenodd;fill:rgb(89.0625%,0%,10.984802%);fill-opacity:1;" d="M 180.625 196.441406 L 180.621094 177.257813 C 181.863281 171.894531 187.542969 167.558594 193.132813 167.652344 L 275.347656 167.292969 C 281.019531 166.664063 285.210938 169.417969 285.453125 175.902344 L 285.453125 196.445313 L 180.625 196.441406 "/>
<path style=" stroke:none;fill-rule:evenodd;fill:rgb(96.09375%,76.951599%,0%);fill-opacity:1;" d="M 150.695313 283.613281 C 139.828125 281.605469 149.355469 275.140625 155.578125 274.136719 C 209.957031 269.15625 270.003906 263.222656 325.242188 274.761719 C 333.859375 276.746094 341.105469 283.617188 327.460938 281.222656 C 319.300781 280.328125 320.132813 284.503906 323.691406 284.507813 C 333.429688 284.515625 346.679688 291.4375 334.503906 292.855469 C 330.40625 292.839844 325.410156 284.105469 320.027344 287.613281 C 318.621094 288.835938 320.671875 289.523438 320.9375 289.578125 C 328.753906 291.109375 324.582031 295.199219 313.835938 291.941406 C 262.375 281.554688 210.195313 279.929688 150.695313 283.613281 "/>
<path style=" stroke:none;fill-rule:nonzero;fill:rgb(100%,100%,100%);fill-opacity:1;" d="M 441.1875 188.597656 L 423.914063 188.597656 L 421.539063 197.21875 L 406.050781 197.21875 L 424.488281 144.984375 L 441.015625 144.984375 L 459.460938 197.21875 L 443.597656 197.21875 Z M 438.011719 177.296875 L 432.585938 158.519531 L 427.195313 177.296875 Z M 484.726563 144.984375 L 499.917969 144.984375 L 499.917969 173.382813 C 499.917969 179.34375 499.414063 183.878906 498.421875 186.992188 C 497.429688 190.105469 495.441406 192.742188 492.4375 194.90625 C 489.433594 197.0625 485.59375 198.144531 480.910156 198.144531 C 475.953125 198.144531 472.117188 197.4375 469.398438 196.003906 C 466.667969 194.578125 464.566406 192.5 463.09375 189.753906 C 461.609375 187.015625 460.730469 183.621094 460.46875 179.585938 L 474.949219 177.480469 C 474.972656 179.777344 475.164063 181.496094 475.519531 182.613281 C 475.875 183.730469 476.480469 184.632813 477.324219 185.3125 C 477.90625 185.773438 478.730469 185.992188 479.804688 185.992188 C 481.496094 185.992188 482.738281 185.324219 483.539063 183.988281 C 484.328125 182.636719 484.726563 180.375 484.726563 177.199219 Z M 538.433594 188.597656 L 521.164063 188.597656 L 518.785156 197.21875 L 503.300781 197.21875 L 521.734375 144.984375 L 538.261719 144.984375 L 556.707031 197.21875 L 540.84375 197.21875 Z M 535.257813 177.296875 L 529.832031 158.519531 L 524.441406 177.296875 Z M 535.257813 177.296875 "/>
<path style=" stroke:none;fill-rule:nonzero;fill:rgb(100%,100%,100%);fill-opacity:1;" d="M 355.40625 208.941406 L 398.441406 208.941406 L 398.441406 221.84375 L 383.996094 221.84375 L 383.996094 261.171875 L 369.839844 261.171875 L 369.839844 221.84375 L 355.40625 221.84375 Z M 405.035156 261.171875 L 405.035156 208.941406 L 428.632813 208.941406 C 433.007813 208.941406 436.355469 209.367188 438.660156 210.230469 C 440.976563 211.078125 442.84375 212.660156 444.261719 214.984375 C 445.679688 217.296875 446.382813 220.117188 446.382813 223.4375 C 446.382813 226.34375 445.839844 228.835938 444.761719 230.941406 C 443.675781 233.042969 442.179688 234.746094 440.292969 236.058594 C 439.078125 236.886719 437.421875 237.578125 435.320313 238.113281 C 437.007813 238.761719 438.234375 239.402344 439.011719 240.050781 C 439.523438 240.472656 440.28125 241.386719 441.273438 242.785156 C 442.265625 244.195313 442.925781 245.265625 443.257813 246.03125 L 450.105469 261.171875 L 434.105469 261.171875 L 426.542969 245.203125 C 425.582031 243.148438 424.726563 241.800781 423.96875 241.179688 C 422.957031 240.378906 421.792969 239.976563 420.503906 239.976563 L 419.253906 239.976563 L 419.253906 261.171875 Z M 419.253906 230.101563 L 425.230469 230.101563 C 425.867188 230.101563 427.117188 229.871094 428.972656 229.394531 C 429.914063 229.175781 430.679688 228.628906 431.277344 227.753906 C 431.863281 226.878906 432.164063 225.867188 432.164063 224.726563 C 432.164063 223.035156 431.695313 221.746094 430.753906 220.847656 C 429.816406 219.933594 428.054688 219.484375 425.472656 219.484375 L 419.253906 219.484375 Z M 483.347656 208.941406 L 497.484375 208.941406 L 497.484375 240.085938 C 497.484375 243.175781 497.058594 246.082031 496.214844 248.828125 C 495.371094 251.566406 494.046875 253.972656 492.246094 256.027344 C 490.441406 258.085938 488.554688 259.519531 486.570313 260.359375 C 483.816406 261.515625 480.523438 262.097656 476.660156 262.097656 C 474.429688 262.097656 471.996094 261.925781 469.363281 261.5625 C 466.726563 261.210938 464.53125 260.503906 462.757813 259.445313 C 460.988281 258.386719 459.367188 256.878906 457.894531 254.933594 C 456.421875 252.988281 455.421875 250.980469 454.875 248.914063 C 454 245.59375 453.5625 242.652344 453.5625 240.085938 L 453.5625 208.941406 L 467.699219 208.941406 L 467.699219 240.828125 C 467.699219 243.683594 468.390625 245.910156 469.769531 247.503906 C 471.15625 249.109375 473.074219 249.910156 475.539063 249.910156 C 477.972656 249.910156 479.890625 249.121094 481.277344 247.539063 C 482.65625 245.972656 483.347656 243.722656 483.347656 240.828125 Z M 525.925781 208.941406 L 540.113281 208.941406 L 540.113281 237.335938 C 540.113281 243.296875 539.644531 247.832031 538.714844 250.945313 C 537.789063 254.058594 535.929688 256.699219 533.125 258.863281 C 530.320313 261.015625 526.734375 262.097656 522.359375 262.097656 C 517.730469 262.097656 514.148438 261.390625 511.609375 259.957031 C 509.058594 258.535156 507.09375 256.453125 505.71875 253.707031 C 504.332031 250.96875 503.511719 247.578125 503.265625 243.539063 L 516.792969 241.433594 C 516.8125 243.734375 516.996094 245.449219 517.324219 246.566406 C 517.65625 247.6875 518.222656 248.585938 519.011719 249.265625 C 519.554688 249.730469 520.324219 249.949219 521.324219 249.949219 C 522.90625 249.949219 524.066406 249.277344 524.816406 247.941406 C 525.550781 246.59375 525.925781 244.328125 525.925781 241.15625 Z M 550.109375 208.941406 L 564.296875 208.941406 L 564.296875 261.171875 L 550.109375 261.171875 Z M 574.453125 208.941406 L 588.621094 208.941406 L 588.621094 248.304688 L 610.714844 248.304688 L 610.714844 261.171875 L 574.453125 261.171875 Z M 617.144531 208.941406 L 631.3125 208.941406 L 631.3125 248.304688 L 653.40625 248.304688 L 653.40625 261.171875 L 617.144531 261.171875 Z M 656.960938 235.085938 C 656.960938 226.5625 659.050781 219.921875 663.210938 215.179688 C 667.382813 210.421875 673.183594 208.050781 680.621094 208.050781 C 688.246094 208.050781 694.125 210.386719 698.253906 215.058594 C 702.371094 219.714844 704.441406 226.257813 704.441406 234.660156 C 704.441406 240.765625 703.535156 245.777344 701.734375 249.679688 C 699.929688 253.585938 697.328125 256.625 693.921875 258.800781 C 690.511719 260.980469 686.273438 262.0625 681.1875 262.0625 C 676.023438 262.0625 671.746094 261.125 668.351563 259.253906 C 664.972656 257.367188 662.230469 254.398438 660.117188 250.335938 C 658.015625 246.273438 656.960938 241.191406 656.960938 235.085938 Z M 671.125 235.160156 C 671.125 240.4375 671.980469 244.21875 673.695313 246.53125 C 675.414063 248.828125 677.761719 249.984375 680.71875 249.984375 C 683.757813 249.984375 686.113281 248.855469 687.777344 246.605469 C 689.441406 244.34375 690.285156 240.292969 690.285156 234.453125 C 690.285156 229.527344 689.410156 225.941406 687.671875 223.667969 C 685.933594 221.40625 683.574219 220.273438 680.589844 220.273438 C 677.738281 220.273438 675.445313 221.417969 673.71875 223.726563 C 671.988281 226.027344 671.125 229.84375 671.125 235.160156 "/>
<path style=" stroke:none;fill-rule:evenodd;fill:rgb(100%,100%,100%);fill-opacity:1;" d="M 395.277344 161.378906 L 395.421875 145.074219 C 337.382813 133.144531 347.796875 214.621094 395.257813 195.691406 L 395.316406 178.976563 C 360.675781 200.742188 362.308594 144.003906 395.277344 161.378906 "/>
</g>
</svg>
